<svg height="746pt" preserveAspectRatio="xMidYMid meet" viewBox="0 0 954 746" width="954pt" xmlns="http://www.w3.org/2000/svg"><g transform="matrix(.1 0 0 -.1 0 746)"><path d="m4265 5880c-132-396-242-714-246-707-3 7-77 224-164 482-87 259-161 474-165 478-4 5-74-189-156-430-81-241-216-638-299-883l-152-445-379-3-379-2-250 250c-238 238-252 250-287 250-57 0-84-33-78-95 1-11 84-103 186-205 101-102 184-189 184-193s-28-7-62-7h-62l-251 250c-247 246-252 250-292 250-33 0-46-5-62-26-46-58-38-71 171-281l192-193h-69-70l-250 250c-222 222-253 250-282 250-17 0-39-3-48-6-23-9-47-61-40-87 4-12 110-126 236-252l229-230-221-220c-121-121-227-232-235-247-28-53 16-118 79-118 26 0 64 33 282 250l251 250h69 69l-192-193c-170-171-192-197-192-226 0-43 38-81 82-81 29 0 58 26 283 250l251 250h67c37 0 67-3 67-7 0-3-79-83-176-177s-182-183-189-199c-24-58 15-117 78-117 27 0 63 32 282 250l251 250h691 692l-70-207c-38-114-69-211-69-215 0-5 423-8 940-8h939l-74 215-74 215h727 727l210-211c204-204 245-239 282-239 9 0 256 102 548 226 549 233 585 252 585 307 0 12-7 32-15 44-19 28-1080 483-1126 483-30 0-56-23-259-225l-226-225-403 2-404 3-233 690c-311 919-366 1076-371 1072-4-4-343-996-343-1007-1-3-110 325-244 728s-246 735-248 737-111-320-243-715zm450-396c114-344 205-627 203-628-42-33-369-277-384-286-20-12-37-1-228 155-114 92-205 173-203 179s94 280 203 609c109 328 200 597 201 597s95-282 208-626zm-915-152c57-166 101-304 99-306-105-83-212-155-222-150-40 25-208 157-205 163 2 4 50 146 107 315 64 190 107 303 111 295 5-8 54-150 110-317zm1655 13c59-174 106-317 104-319-55-43-210-156-214-156-16 0-216 164-212 174 2 6 50 147 107 314 56 166 104 302 105 302s51-142 110-315zm-1900-574 132-99 118 91c65 50 116 85 113 77s-38-115-79-237l-74-223h-258c-203 0-258 3-254 13 2 6 40 117 83 244 44 128 81 233 83 233s64-45 136-99zm2140-133c43-128 80-239 83-246 3-10-47-12-244-10l-247 3-73 218c-40 119-70 217-68 217 3 0 49-33 102-73l97-74 130 98c72 54 132 99 135 99s41-105 85-232zm-1410-96 226-184 230 173c126 94 231 170 233 168 4-6 255-753 253-755-1-1-328-6-726-10-619-6-724-5-719 7 3 8 63 188 134 402 71 213 132 386 136 385 4-2 109-86 233-186zm3392-74c221-95 399-176 395-179-4-4-187-84-407-178l-400-171-135 135-135 135h292 291l27 32c21 25 25 38 21 62-13 65-17 66-337 66-159 0-289 3-289 7 0 12 253 263 265 263 5 0 191-77 412-172z"/><path d="m2800 2045v-495h75 75l2 328 3 327 43-155c24-85 46-163 48-172 4-15 17-18 64-18h59l15 53c8 28 31 106 50 172l35 120v-327l1-328h80 80v495 495h-95-94l-19-62c-10-35-38-132-62-215-24-84-47-153-50-153s-33 96-66 213l-61 212-92 3-91 3z"/><path d="m3780 2045v-495h315 315v70 70h-235-235v425 425h-80-80z"/><path d="m5925 2257c-27-8-78-26-112-41l-62-28 30-59c16-33 32-59 34-59 3 0 34 12 68 26 46 20 85 28 152 32 113 6 159-10 180-62 27-64 28-63-117-69-147-5-218-23-289-73-111-77-131-214-45-312 45-51 106-75 191-75 98 0 172 24 228 74l47 41v-51-51h75 75v259c0 287-5 320-62 378-53 55-118 76-238 80-62 1-125-3-155-10zm301-400c12-12-11-82-38-113-39-44-107-69-190-69-99 0-142 39-124 111 14 53 118 86 259 80 48-2 90-6 93-9z"/><path d="m4772 1978c3-269 4-285 25-324 76-142 265-163 380-42 18 18 39 49 47 68l15 35 1-82v-83h80 80v355 355h-79-79l-4-212c-3-209-4-214-30-265-28-52-63-84-107-98-40-12-101-7-128 10-48 32-53 64-53 325v240h-76-75z"/></g></svg>